<?xml version="1.0" encoding="UTF-8" standalone="no"?>
<!-- Created with Inkscape (http://www.inkscape.org/) -->

<svg
   version="1.1"
   id="svg9"
   xml:space="preserve"
   width="377.95334"
   height="377.95334"
   viewBox="0 0 377.95334 377.95334"
   sodipodi:docname="Citybikes_hki_epo_svg.svg"
   inkscape:version="1.1.1 (3bf5ae0d25, 2021-09-20)"
   xmlns:inkscape="http://www.inkscape.org/namespaces/inkscape"
   xmlns:sodipodi="http://sodipodi.sourceforge.net/DTD/sodipodi-0.dtd"
   xmlns="http://www.w3.org/2000/svg"
   xmlns:svg="http://www.w3.org/2000/svg"><defs
     id="defs13"><clipPath
       clipPathUnits="userSpaceOnUse"
       id="clipPath23"><path
         d="M 0,283.465 H 283.465 V 0 H 0 Z"
         id="path21" /></clipPath></defs><sodipodi:namedview
     id="namedview11"
     pagecolor="#ffffff"
     bordercolor="#666666"
     borderopacity="1.0"
     inkscape:pageshadow="2"
     inkscape:pageopacity="0.0"
     inkscape:pagecheckerboard="0"
     showgrid="false"
     inkscape:zoom="2.1404759"
     inkscape:cx="188.97667"
     inkscape:cy="188.97667"
     inkscape:window-width="1920"
     inkscape:window-height="1017"
     inkscape:window-x="1912"
     inkscape:window-y="-8"
     inkscape:window-maximized="1"
     inkscape:current-layer="g15" /><g
     id="g15"
     inkscape:groupmode="layer"
     inkscape:label="Kaupunkipyora_helsinki_espoo_rgb"
     transform="matrix(1.3333333,0,0,-1.3333333,0,377.95333)"><g
       id="g17"><g
         id="g19"
         clip-path="url(#clipPath23)"><g
           id="g25"
           transform="translate(0,35.4346)"><path
             d="m 0,0 c 0,-19.492 15.947,-35.436 35.444,-35.436 h 212.588 c 19.49,0 35.433,15.944 35.433,35.436 v 212.595 c 0,19.487 -15.943,35.436 -35.433,35.436 H 35.444 C 15.947,248.031 0,232.082 0,212.595 Z"
             style="fill:#fcb919;fill-opacity:1;fill-rule:nonzero;stroke:none"
             id="path27" /></g><g
           id="g29"
           transform="translate(186.498,126.9541)"><path
             d="m 0,0 c -4.271,-5.697 -6.881,-12.814 -6.881,-20.644 0,-18.983 15.188,-34.169 34.174,-34.169 18.745,0 34.17,15.186 34.17,34.169 0,18.749 -15.425,34.171 -34.17,34.171 -1.426,0 -2.856,0 -4.036,-0.237 l -3.797,9.968 c 2.371,0.473 4.977,0.709 7.833,0.709 24.673,0 44.614,-19.931 44.614,-44.611 0,-24.677 -19.941,-44.612 -44.614,-44.612 -24.683,0 -44.853,19.935 -44.853,44.612 0,12.34 5.222,23.73 13.289,31.795 z"
             style="fill:#000000;fill-opacity:1;fill-rule:nonzero;stroke:none"
             id="path31" /></g><g
           id="g33"
           transform="translate(41.7456,123.8701)"><path
             d="m 0,0 c -3.563,-5.691 -5.218,-11.63 -5.218,-17.56 0,-18.983 15.422,-34.169 34.409,-34.169 10.439,0 19.696,4.505 25.388,12.1 l 12.58,-1.423 c -7.833,-12.814 -22.069,-21.12 -37.968,-21.12 -24.682,0 -44.85,19.935 -44.85,44.612 0,7.593 2.136,15.663 6.168,22.304 C -6.41,3.56 -2.848,1.898 0,0"
             style="fill:#000000;fill-opacity:1;fill-rule:nonzero;stroke:none"
             id="path35" /></g><g
           id="g37"
           transform="translate(22.2778,147.8594)"><path
             d="m 0,0 c 0.288,0.282 2.276,2.162 2.583,2.422 9.436,7.865 22.565,12.979 36.58,12.979 12.103,0 23.967,-4.034 33.936,-11.387 l 9.905,14.741 -9.81,25.531 c -1.193,-0.252 -2.396,-0.408 -3.656,-0.408 -7.356,0 -15.184,5.457 -15.184,11.391 0,2.851 2.371,4.207 6.167,4.207 6.406,0 8.308,-0.173 19.454,-0.173 h 15.192 c 3.795,0 5.935,-2.373 5.935,-5.223 0,-2.847 -2.377,-4.745 -5.457,-4.983 L 92.557,48.86 c -3.7,-0.232 -6.712,-0.837 -9.339,-1.551 l 27.889,-72.73 2.566,0.246 c 4.217,0.45 7.76,-0.055 10.941,-1.759 4.509,20.151 16.413,35.753 32.433,46.495 l -8.525,22.248 c -1.184,3.319 0.186,6.409 2.96,9.737 l 0.012,-0.01 c 3.407,5.451 3.89,7.006 4.315,8.645 0.589,2.245 -0.181,4.625 -1.377,5.879 -0.798,0.828 -2.192,1.947 -4.751,1.872 -3.013,-0.042 -6.129,-2.958 -7.309,-4.101 -2.079,-1.984 -5.172,-2.195 -7.267,-0.272 -2.086,1.933 -2.205,5.183 -0.275,7.258 0.67,0.73 6.773,7.075 14.695,7.207 5.701,0.116 10.36,-2.278 13.511,-6.08 2.912,-3.527 3.939,-8.205 2.906,-13.227 -1.052,-5.135 -2.297,-7.441 -6.731,-14.196 -0.052,-0.079 -0.105,-0.162 -0.154,-0.237 l 0.068,-0.165 h 21.204 c 3.088,0 4.744,-1.427 7.125,-4.274 5.926,-6.884 22.059,-9.255 29.891,8.069 2.609,5.694 10.68,2.844 8.308,-3.795 l -9.964,-28.955 c -0.715,-2.372 -2.613,-3.797 -5.462,-3.797 h -19.695 c -2.613,0 -4.276,1.188 -5.459,4.034 l -8.067,20.411 H 162.265 L 180.598,-12.6 c 3.797,-9.729 9.25,-18.98 14.236,-25.153 4.505,-5.693 -2.848,-12.102 -8.074,-5.934 -4.978,5.697 -11.621,15.899 -15.657,26.583 L 160.995,9.272 C 145.044,-2.416 135.453,-20.104 134.321,-38.465 l -0.238,-3.321 c -0.95,-14.237 -10.439,-19.221 -22.069,-18.037 l -61.932,6.649 c -6.883,0.708 -10.919,4.979 -10.919,11.151 0,3.436 1.862,6.654 4.883,8.668 C 33.03,-21.504 19.208,-12.562 4.637,-9.049 4.28,-8.964 2.331,-8.418 1.969,-8.355 -1.866,-7.67 -2.751,-2.751 0,0 m 87.503,7.043 -24.969,-37.144 37.835,3.647 z m 28.783,-58.561 c 4.982,0 9.014,4.038 9.014,9.021 0,4.982 -4.032,9.016 -9.014,9.016 -4.743,0 -9.016,-4.034 -9.016,-9.016 0,-4.983 4.273,-9.021 9.016,-9.021"
             style="fill:#000000;fill-opacity:1;fill-rule:nonzero;stroke:none"
             id="path39" /></g></g></g></g></svg>
